<svg width="35" height="35" viewBox="0 0 35 35" fill="none" xmlns="http://www.w3.org/2000/svg">
<path d="M31.8961 1.3208H3.10586C2.11973 1.3208 1.32031 2.12022 1.32031 3.10635V31.8966C1.32031 32.8827 2.11973 33.6821 3.10586 33.6821H31.8961C32.8822 33.6821 33.6816 32.8827 33.6816 31.8966V3.10635C33.6816 2.12022 32.8822 1.3208 31.8961 1.3208Z" fill="#3D5A98"/>
<path d="M23.6473 33.6793V21.1476H27.8527L28.4816 16.264H23.6473V13.1468C23.6473 11.7332 24.041 10.7679 26.0672 10.7679H28.6539V6.39293C27.4013 6.26263 26.1425 6.20056 24.8832 6.207C21.159 6.207 18.5941 8.47653 18.5941 12.6629V16.264H14.3887V21.1476H18.5941V33.6793H23.6473Z" fill="white"/>
</svg>
