<svg width="38" height="38" viewBox="0 0 38 38" fill="none" xmlns="http://www.w3.org/2000/svg">
<g clip-path="url(#clip0_19_237)">
<path d="M31.0182 4H11.9818C9.86489 4 7.83469 4.84094 6.33781 6.33781C4.84094 7.83469 4 9.86489 4 11.9818V31.0182C4 33.1351 4.84094 35.1653 6.33781 36.6622C7.83469 38.1591 9.86489 39 11.9818 39H31.0182C33.1351 39 35.1653 38.1591 36.6622 36.6622C38.1591 35.1653 39 33.1351 39 31.0182V11.9818C39 9.86489 38.1591 7.83469 36.6622 6.33781C35.1653 4.84094 33.1351 4 31.0182 4ZM15.8336 32.2549C15.8392 32.3526 15.8248 32.4504 15.7913 32.5423C15.7577 32.6342 15.7057 32.7183 15.6385 32.7894C15.5712 32.8605 15.4902 32.9172 15.4003 32.9558C15.3104 32.9944 15.2135 33.0143 15.1156 33.0141H11.9208C11.7281 33.0094 11.545 32.9293 11.4107 32.791C11.2765 32.6528 11.2018 32.4673 11.2028 32.2746V18.9872C11.2002 18.8912 11.2168 18.7958 11.2517 18.7064C11.2866 18.617 11.3391 18.5355 11.406 18.4667C11.4729 18.3979 11.553 18.3433 11.6414 18.306C11.7298 18.2687 11.8248 18.2495 11.9208 18.2495H15.1156C15.2116 18.2495 15.3066 18.2687 15.395 18.306C15.4834 18.3433 15.5635 18.3979 15.6304 18.4667C15.6973 18.5355 15.7498 18.617 15.7847 18.7064C15.8196 18.7958 15.8362 18.8912 15.8336 18.9872V32.2549ZM13.459 15.4549C13.1131 15.4523 12.7711 15.3816 12.4525 15.2468C12.1339 15.1121 11.845 14.9159 11.6023 14.6694C11.3595 14.423 11.1677 14.1312 11.0377 13.8106C10.9077 13.4901 10.8422 13.1471 10.8447 12.8012C10.8473 12.4553 10.918 12.1133 11.0528 11.7947C11.1876 11.4761 11.3838 11.1872 11.6302 10.9444C11.8766 10.7017 12.1684 10.5098 12.489 10.3799C12.8095 10.2499 13.1526 10.1843 13.4985 10.1869C14.185 10.2093 14.8357 10.499 15.3116 10.9944C15.7875 11.4897 16.051 12.1514 16.0459 12.8384C16.0407 13.5253 15.7673 14.183 15.284 14.6711C14.8007 15.1593 14.1458 15.4393 13.459 15.4513M32.8741 32.2333C32.8733 32.4147 32.8021 32.5886 32.6755 32.7185C32.5489 32.8484 32.3769 32.9242 32.1956 32.9297H28.8231C28.6415 32.9242 28.4692 32.8482 28.3426 32.7179C28.216 32.5876 28.145 32.4132 28.1446 32.2315V26.0859C28.1446 25.1687 28.4246 22.0959 25.7108 22.0959C23.5946 22.0959 23.1764 24.2497 23.0956 25.2082V32.3715C23.0957 32.5535 23.0249 32.7284 22.8983 32.8591C22.7716 32.9897 22.5991 33.0659 22.4172 33.0715H19.1451C18.9598 33.0711 18.7822 32.9971 18.6513 32.8659C18.5204 32.7347 18.4469 32.5569 18.4469 32.3715V18.9226C18.4525 18.7407 18.5287 18.5681 18.6594 18.4415C18.7901 18.3148 18.9649 18.244 19.1469 18.2441H22.4172C22.5992 18.244 22.774 18.3148 22.9047 18.4415C23.0354 18.5681 23.1116 18.7407 23.1172 18.9226V20.0803C23.5947 19.3814 24.2539 18.8261 25.0238 18.4744C25.7937 18.1227 26.645 17.9878 27.4859 18.0844C32.9333 18.0844 32.9136 23.1728 32.9136 26.0662L32.8741 32.2333Z" fill="#3771C8"/>
</g>
<defs>
<clipPath id="clip0_19_237">
<rect width="38" height="38" fill="white"/>
</clipPath>
</defs>
</svg>
